<svg xmlns="http://www.w3.org/2000/svg" width="320" height="180" viewBox="0 0 320 180" role="img" aria-label="Top languages">
  <rect width="100%" height="100%" rx="8" fill="#0d1117" stroke="#30363d"/>
  <text x="28" y="36" fill="#6366F1" font-size="16" font-weight="600" font-family="Segoe UI, Ubuntu, Sans-Serif">Top Languages</text>
  <line x1="28" y1="48" x2="292" y2="48" stroke="#21262d"/>
  <text x="28" y="62" fill="#c9d1d9" font-size="12" font-family="Segoe UI, Ubuntu, Sans-Serif">TypeScript</text><rect x="120" y="52" width="180" height="10" rx="3" fill="#21262d"/><rect x="120" y="52" width="72" height="10" rx="3" fill="#6366F1"/><text x="292" y="62" text-anchor="end" fill="#8b949e" font-size="11" font-family="Segoe UI, Ubuntu, Sans-Serif">8</text><text x="28" y="80" fill="#c9d1d9" font-size="12" font-family="Segoe UI, Ubuntu, Sans-Serif">JavaScript</text><rect x="120" y="70" width="180" height="10" rx="3" fill="#21262d"/><rect x="120" y="70" width="62" height="10" rx="3" fill="#818CF8"/><text x="292" y="80" text-anchor="end" fill="#8b949e" font-size="11" font-family="Segoe UI, Ubuntu, Sans-Serif">7</text><text x="28" y="98" fill="#c9d1d9" font-size="12" font-family="Segoe UI, Ubuntu, Sans-Serif">Python</text><rect x="120" y="88" width="180" height="10" rx="3" fill="#21262d"/><rect x="120" y="88" width="27" height="10" rx="3" fill="#A5B4FC"/><text x="292" y="98" text-anchor="end" fill="#8b949e" font-size="11" font-family="Segoe UI, Ubuntu, Sans-Serif">3</text><text x="28" y="116" fill="#c9d1d9" font-size="12" font-family="Segoe UI, Ubuntu, Sans-Serif">HTML</text><rect x="120" y="106" width="180" height="10" rx="3" fill="#21262d"/><rect x="120" y="106" width="18" height="10" rx="3" fill="#C7D2FE"/><text x="292" y="116" text-anchor="end" fill="#8b949e" font-size="11" font-family="Segoe UI, Ubuntu, Sans-Serif">2</text>
</svg>