<svg xmlns="http://www.w3.org/2000/svg" width="560" height="180" viewBox="0 0 560 180" role="img" aria-label="Top languages">
  <rect width="100%" height="100%" rx="8" fill="#0d1117" stroke="#30363d"/>
  <text x="32" y="36" fill="#6366F1" font-size="18" font-weight="600" font-family="Segoe UI, Ubuntu, Sans-Serif">Top Languages</text>
  <line x1="32" y1="50" x2="528" y2="50" stroke="#21262d"/>
  <text x="32" y="72" fill="#c9d1d9" font-size="13" font-family="Segoe UI, Ubuntu, Sans-Serif">TypeScript</text><rect x="140" y="62" width="364" height="10" rx="3" fill="#21262d"/><rect x="140" y="62" width="145" height="10" rx="3" fill="#6366F1"/><text x="528" y="72" text-anchor="end" fill="#8b949e" font-size="12" font-family="Segoe UI, Ubuntu, Sans-Serif">8</text><text x="32" y="92" fill="#c9d1d9" font-size="13" font-family="Segoe UI, Ubuntu, Sans-Serif">JavaScript</text><rect x="140" y="82" width="364" height="10" rx="3" fill="#21262d"/><rect x="140" y="82" width="127" height="10" rx="3" fill="#818CF8"/><text x="528" y="92" text-anchor="end" fill="#8b949e" font-size="12" font-family="Segoe UI, Ubuntu, Sans-Serif">7</text><text x="32" y="112" fill="#c9d1d9" font-size="13" font-family="Segoe UI, Ubuntu, Sans-Serif">Python</text><rect x="140" y="102" width="364" height="10" rx="3" fill="#21262d"/><rect x="140" y="102" width="54" height="10" rx="3" fill="#A5B4FC"/><text x="528" y="112" text-anchor="end" fill="#8b949e" font-size="12" font-family="Segoe UI, Ubuntu, Sans-Serif">3</text><text x="32" y="132" fill="#c9d1d9" font-size="13" font-family="Segoe UI, Ubuntu, Sans-Serif">HTML</text><rect x="140" y="122" width="364" height="10" rx="3" fill="#21262d"/><rect x="140" y="122" width="36" height="10" rx="3" fill="#4F46E5"/><text x="528" y="132" text-anchor="end" fill="#8b949e" font-size="12" font-family="Segoe UI, Ubuntu, Sans-Serif">2</text>
</svg>
